<?xml version="1.0" standalone="no"?>
<!DOCTYPE svg PUBLIC "-//W3C//DTD SVG 20010904//EN"
 "http://www.w3.org/TR/2001/REC-SVG-20010904/DTD/svg10.dtd">
<svg version="1.0" xmlns="http://www.w3.org/2000/svg"
 width="512.000000pt" height="512.000000pt" viewBox="0 0 512.000000 512.000000"
 preserveAspectRatio="xMidYMid meet">
<metadata>
Created by potrace 1.14, written by Peter Selinger 2001-2017
</metadata>
<g transform="translate(0.000000,512.000000) scale(0.100000,-0.100000)"
fill="#000000" stroke="none">
<path d="M2625 4342 c-75 -7 -139 -72 -144 -147 -1 -7 -377 -10 -1107 -10
-724 0 -1117 -3 -1137 -10 -17 -5 -42 -26 -55 -45 -21 -31 -23 -44 -20 -117 3
-78 5 -84 36 -115 l32 -33 445 -3 445 -3 0 -432 c0 -416 1 -433 20 -465 11
-18 34 -39 50 -45 22 -10 332 -13 1384 -12 l1356 0 32 33 33 32 3 448 3 447
232 -2 c128 -1 235 -2 240 -2 4 -1 7 -76 7 -168 l0 -168 -27 -25 c-41 -39 -53
-80 -53 -180 0 -77 -3 -92 -17 -97 -10 -3 -28 -15 -40 -26 l-23 -20 0 -368 c0
-355 1 -369 20 -379 12 -6 98 -10 225 -9 165 1 209 4 221 16 12 12 14 74 14
372 0 347 -1 359 -21 385 -11 14 -29 26 -40 26 -17 0 -19 8 -20 93 0 50 -2
101 -4 111 -4 22 -42 77 -62 89 -10 6 -13 48 -13 180 l0 172 102 -1 c124 -2
165 10 195 55 28 42 32 144 7 196 -27 58 -52 67 -189 68 -68 1 -121 5 -118 9
9 15 -17 75 -45 100 -58 54 -9 52 -1007 52 -511 1 -943 0 -960 -2z"/>
<path d="M1918 2375 c-16 -9 -28 -19 -28 -23 0 -4 -15 -24 -34 -45 -30 -34
-38 -38 -82 -38 -27 0 -65 5 -83 10 -25 8 -47 7 -75 -1 -28 -8 -213 -12 -586
-13 -481 -2 -550 -4 -590 -19 -178 -67 -282 -215 -277 -394 6 -167 133 -296
304 -307 38 -2 152 -4 256 -5 103 0 187 -3 187 -8 0 -11 -91 -105 -125 -129
-52 -36 -126 -72 -161 -79 -19 -3 -36 -9 -39 -13 -2 -4 216 -7 485 -7 l490 1
0 -236 c0 -224 1 -238 21 -263 15 -19 30 -26 56 -26 31 0 48 13 163 125 169
164 153 164 320 0 70 -69 134 -126 141 -126 36 -3 56 4 77 27 21 25 22 31 22
260 0 129 3 234 8 234 4 1 491 2 1082 4 1084 3 1093 4 1185 38 90 34 200 129
251 216 95 161 94 370 -2 508 -63 92 -149 155 -254 185 -35 10 -295 13 -1175
14 -883 1 -1135 4 -1153 14 -18 10 -34 10 -71 1 -82 -19 -132 -16 -154 11 -78
97 -107 113 -159 84z"/>
</g>
</svg>
