<?xml version="1.0" encoding="utf-8"?>
<!-- Generator: Adobe Illustrator 16.0.0, SVG Export Plug-In . SVG Version: 6.00 Build 0)  -->
<!DOCTYPE svg PUBLIC "-//W3C//DTD SVG 1.1//EN" "http://www.w3.org/Graphics/SVG/1.1/DTD/svg11.dtd">
<svg version="1.1" id="Layer_1" xmlns="http://www.w3.org/2000/svg" xmlns:xlink="http://www.w3.org/1999/xlink" x="0px" y="0px"
	 width="378px" height="234px" viewBox="0 0 378 234" enable-background="new 0 0 378 234" xml:space="preserve">
<rect x="-18.5" y="-19.5" display="none" width="419" height="269"/>
<g>
	<path fill="#FFFFFF" stroke="#FFFFFF" stroke-miterlimit="10" d="M163.66,94.515h-3.989c-0.393,0-0.617,0.197-0.617,0.618v1.265
		h-2.501v-2.613c0-1.264,0.421-1.686,1.685-1.686h13.654c1.263,0,1.684,0.422,1.684,1.686v2.613h-2.5v-1.265
		c0-0.421-0.225-0.618-0.618-0.618h-3.988v17.417h-2.81V94.515z"/>
	<path fill="#FFFFFF" stroke="#FFFFFF" stroke-miterlimit="10" d="M163.66,94.515h-3.989c-0.393,0-0.617,0.197-0.617,0.618v1.265
		h-2.501v-2.613c0-1.264,0.421-1.686,1.685-1.686h13.654c1.263,0,1.684,0.422,1.684,1.686v2.613h-2.5v-1.265
		c0-0.421-0.225-0.618-0.618-0.618h-3.988v17.417h-2.81V94.515z"/>
	<path fill="#FFFFFF" stroke="#FFFFFF" stroke-miterlimit="10" d="M178.523,95.049c0-0.422-0.225-0.618-0.618-0.618h-1.152v-2.332
		h2.697c1.264,0,1.798,0.534,1.798,1.742v5.534c0,0.674-0.056,1.18-0.056,1.18h0.056c0.618-1.377,2.444-3.175,5.281-3.175
		c3.343,0,4.86,1.826,4.86,5.45v6.153c0,0.421,0.226,0.617,0.617,0.617h1.152v2.332h-2.669c-1.264,0-1.798-0.534-1.798-1.798v-6.686
		c0-1.995-0.421-3.567-2.696-3.567c-2.163,0-3.906,1.46-4.495,3.511c-0.197,0.562-0.253,1.208-0.253,1.883v6.657h-2.725
		L178.523,95.049L178.523,95.049z"/>
	<path fill="#FFFFFF" stroke="#FFFFFF" stroke-miterlimit="10" d="M178.523,95.049c0-0.422-0.225-0.618-0.618-0.618h-1.152v-2.332
		h2.697c1.264,0,1.798,0.534,1.798,1.742v5.534c0,0.674-0.056,1.18-0.056,1.18h0.056c0.618-1.377,2.444-3.175,5.281-3.175
		c3.343,0,4.86,1.826,4.86,5.45v6.153c0,0.421,0.226,0.617,0.617,0.617h1.152v2.332h-2.669c-1.264,0-1.798-0.534-1.798-1.798v-6.686
		c0-1.995-0.421-3.567-2.696-3.567c-2.163,0-3.906,1.46-4.495,3.511c-0.197,0.562-0.253,1.208-0.253,1.883v6.657h-2.725
		L178.523,95.049L178.523,95.049z"/>
	<path fill="#FFFFFF" stroke="#FFFFFF" stroke-miterlimit="10" d="M204.116,97.38c3.989,0,6.124,2.978,6.124,6.658
		c0,0.365-0.084,1.123-0.084,1.123h-10.367c0.17,3.034,2.359,4.748,4.889,4.748c2.443,0,4.158-1.657,4.158-1.657l1.18,1.938
		c0,0-2.106,2.078-5.479,2.078c-4.494,0-7.557-3.23-7.557-7.444C196.98,100.303,200.07,97.38,204.116,97.38 M207.432,103.167
		c-0.084-2.359-1.574-3.624-3.344-3.624c-2.078,0-3.764,1.265-4.186,3.624H207.432z"/>
	<path fill="#FFFFFF" stroke="#FFFFFF" stroke-miterlimit="10" d="M204.116,97.38c3.989,0,6.124,2.978,6.124,6.658
		c0,0.365-0.084,1.123-0.084,1.123h-10.367c0.17,3.034,2.359,4.748,4.889,4.748c2.443,0,4.158-1.657,4.158-1.657l1.18,1.938
		c0,0-2.106,2.078-5.479,2.078c-4.494,0-7.557-3.23-7.557-7.444C196.98,100.303,200.07,97.38,204.116,97.38z M207.432,103.167
		c-0.084-2.359-1.574-3.624-3.344-3.624c-2.078,0-3.764,1.265-4.186,3.624H207.432z"/>
	<path fill="#FFFFFF" stroke="#FFFFFF" stroke-miterlimit="10" d="M234.43,91.762c2.67,0,7.443,1.124,7.443,4.298v1.938h-2.584
		v-1.123c0-1.658-2.809-2.501-4.803-2.501c-3.99,0-7.079,3.006-7.079,7.473c0,4.326,3.118,7.781,7.163,7.781
		c3.933,0,6.265-2.696,6.265-2.696l1.517,2.022c0,0-2.811,3.315-7.811,3.315c-5.926,0-10.057-4.579-10.057-10.422
		C224.484,96.117,228.755,91.762,234.43,91.762"/>
	<path fill="#FFFFFF" stroke="#FFFFFF" stroke-miterlimit="10" d="M234.43,91.762c2.67,0,7.443,1.124,7.443,4.298v1.938h-2.584
		v-1.123c0-1.658-2.809-2.501-4.803-2.501c-3.99,0-7.079,3.006-7.079,7.473c0,4.326,3.118,7.781,7.163,7.781
		c3.933,0,6.265-2.696,6.265-2.696l1.517,2.022c0,0-2.811,3.315-7.811,3.315c-5.926,0-10.057-4.579-10.057-10.422
		C224.484,96.117,228.755,91.762,234.43,91.762z"/>
	<path fill="#FFFFFF" stroke="#FFFFFF" stroke-miterlimit="10" d="M254.125,97.381c4.241,0,7.669,3.118,7.669,7.417
		c0,4.325-3.428,7.471-7.669,7.471c-4.242,0-7.641-3.146-7.641-7.471C246.484,100.499,249.883,97.381,254.125,97.381
		 M254.125,109.91c2.695,0,4.889-2.135,4.889-5.112c0-2.95-2.191-5.057-4.889-5.057c-2.669,0-4.859,2.107-4.859,5.057
		C249.266,107.775,251.456,109.91,254.125,109.91"/>
	<path fill="#FFFFFF" stroke="#FFFFFF" stroke-miterlimit="10" d="M254.125,97.381c4.241,0,7.669,3.118,7.669,7.417
		c0,4.325-3.428,7.471-7.669,7.471c-4.242,0-7.641-3.146-7.641-7.471C246.484,100.499,249.883,97.381,254.125,97.381z
		 M254.125,109.91c2.695,0,4.889-2.135,4.889-5.112c0-2.95-2.191-5.057-4.889-5.057c-2.669,0-4.859,2.107-4.859,5.057
		C249.266,107.775,251.456,109.91,254.125,109.91z"/>
	<path fill="#FFFFFF" stroke="#FFFFFF" stroke-miterlimit="10" d="M267.133,95.049c0-0.422-0.227-0.618-0.617-0.618h-1.154v-2.332
		h2.699c1.262,0,1.797,0.534,1.797,1.798v15.086c0,0.421,0.226,0.617,0.619,0.617h1.15v2.332h-2.695
		c-1.266,0-1.799-0.534-1.799-1.798V95.049L267.133,95.049z"/>
	<path fill="#FFFFFF" stroke="#FFFFFF" stroke-miterlimit="10" d="M267.133,95.049c0-0.422-0.227-0.618-0.617-0.618h-1.154v-2.332
		h2.699c1.262,0,1.797,0.534,1.797,1.798v15.086c0,0.421,0.226,0.617,0.619,0.617h1.15v2.332h-2.695
		c-1.266,0-1.799-0.534-1.799-1.798V95.049L267.133,95.049z"/>
	<path fill="#FFFFFF" stroke="#FFFFFF" stroke-miterlimit="10" d="M276.91,95.049c0-0.422-0.227-0.618-0.618-0.618h-1.153v-2.332
		h2.698c1.263,0,1.798,0.534,1.798,1.798v15.086c0,0.421,0.225,0.617,0.618,0.617h1.151v2.332h-2.696
		c-1.265,0-1.798-0.534-1.798-1.798V95.049L276.91,95.049z"/>
	<path fill="#FFFFFF" stroke="#FFFFFF" stroke-miterlimit="10" d="M276.91,95.049c0-0.422-0.227-0.618-0.618-0.618h-1.153v-2.332
		h2.698c1.263,0,1.798,0.534,1.798,1.798v15.086c0,0.421,0.225,0.617,0.618,0.617h1.151v2.332h-2.696
		c-1.265,0-1.798-0.534-1.798-1.798V95.049L276.91,95.049z"/>
	<path fill="#FFFFFF" stroke="#FFFFFF" stroke-miterlimit="10" d="M292.501,97.38c3.989,0,6.124,2.978,6.124,6.658
		c0,0.365-0.084,1.123-0.084,1.123h-10.367c0.169,3.034,2.36,4.748,4.889,4.748c2.443,0,4.158-1.657,4.158-1.657l1.18,1.938
		c0,0-2.106,2.078-5.479,2.078c-4.495,0-7.556-3.23-7.556-7.444C285.366,100.303,288.456,97.38,292.501,97.38 M295.814,103.167
		c-0.084-2.359-1.572-3.624-3.342-3.624c-2.078,0-3.765,1.265-4.187,3.624H295.814z"/>
	<path fill="#FFFFFF" stroke="#FFFFFF" stroke-miterlimit="10" d="M292.501,97.38c3.989,0,6.124,2.978,6.124,6.658
		c0,0.365-0.084,1.123-0.084,1.123h-10.367c0.169,3.034,2.36,4.748,4.889,4.748c2.443,0,4.158-1.657,4.158-1.657l1.18,1.938
		c0,0-2.106,2.078-5.479,2.078c-4.495,0-7.556-3.23-7.556-7.444C285.366,100.303,288.456,97.38,292.501,97.38z M295.814,103.167
		c-0.084-2.359-1.572-3.624-3.342-3.624c-2.078,0-3.765,1.265-4.187,3.624H295.814z"/>
	<path fill="#FFFFFF" stroke="#FFFFFF" stroke-miterlimit="10" d="M309.385,97.38c3.541,0,4.553,2.22,4.553,2.22h0.057v-0.449
		c0-0.843,0.449-1.433,1.573-1.433h2.641v2.331h-1.124c-0.366,0-0.618,0.196-0.618,0.562v10.731c0,4.692-3.566,6.489-7.164,6.489
		c-1.713,0-3.454-0.477-4.858-1.179l0.928-2.192c0,0,1.741,0.955,3.876,0.955c2.472,0,4.495-1.095,4.495-3.961v-0.955
		c0-0.449,0.057-0.899,0.057-0.899h-0.057c-0.843,1.377-2.163,2.163-4.242,2.163c-3.934,0-6.35-3.174-6.35-7.275
		C303.148,100.414,305.425,97.38,309.385,97.38 M313.824,104.516c0-3.708-1.826-4.775-4.019-4.775c-2.472,0-3.876,1.797-3.876,4.691
		c0,2.949,1.544,4.972,4.103,4.972C311.998,109.404,313.824,108.224,313.824,104.516"/>
	<path fill="#FFFFFF" stroke="#FFFFFF" stroke-miterlimit="10" d="M309.385,97.38c3.541,0,4.553,2.22,4.553,2.22h0.057v-0.449
		c0-0.843,0.449-1.433,1.573-1.433h2.641v2.331h-1.124c-0.366,0-0.618,0.196-0.618,0.562v10.731c0,4.692-3.566,6.489-7.164,6.489
		c-1.713,0-3.454-0.477-4.858-1.179l0.928-2.192c0,0,1.741,0.955,3.876,0.955c2.472,0,4.495-1.095,4.495-3.961v-0.955
		c0-0.449,0.057-0.899,0.057-0.899h-0.057c-0.843,1.377-2.163,2.163-4.242,2.163c-3.934,0-6.35-3.174-6.35-7.275
		C303.148,100.414,305.425,97.38,309.385,97.38z M313.824,104.516c0-3.708-1.826-4.775-4.019-4.775
		c-2.472,0-3.876,1.797-3.876,4.691c0,2.949,1.544,4.972,4.103,4.972C311.998,109.404,313.824,108.224,313.824,104.516z"/>
	<path fill="#FFFFFF" stroke="#FFFFFF" stroke-miterlimit="10" d="M329.22,97.38c3.989,0,6.124,2.978,6.124,6.658
		c0,0.365-0.084,1.123-0.084,1.123h-10.367c0.169,3.034,2.36,4.748,4.89,4.748c2.442,0,4.158-1.657,4.158-1.657l1.18,1.938
		c0,0-2.107,2.078-5.479,2.078c-4.494,0-7.556-3.23-7.556-7.444C322.085,100.303,325.175,97.38,329.22,97.38 M332.534,103.167
		c-0.084-2.359-1.573-3.624-3.343-3.624c-2.078,0-3.765,1.265-4.187,3.624H332.534z"/>
	<path fill="none" stroke="#FFFFFF" stroke-miterlimit="10" d="M329.22,97.38c3.989,0,6.124,2.978,6.124,6.658
		c0,0.365-0.084,1.123-0.084,1.123h-10.367c0.169,3.034,2.36,4.748,4.89,4.748c2.442,0,4.158-1.657,4.158-1.657l1.18,1.938
		c0,0-2.107,2.078-5.479,2.078c-4.494,0-7.556-3.23-7.556-7.444C322.085,100.303,325.175,97.38,329.22,97.38z M332.534,103.167
		c-0.084-2.359-1.573-3.624-3.343-3.624c-2.078,0-3.765,1.265-4.187,3.624H332.534z"/>
	<polygon fill="#FFFFFF" stroke="#FFFFFF" stroke-miterlimit="10" points="157.312,139.811 159.25,139.811 159.25,124.811 
		157.312,124.811 157.312,122.395 163.857,122.395 163.857,124.811 161.918,124.811 161.918,139.811 163.857,139.811 
		163.857,142.227 157.312,142.227 	"/>
	<path fill="#FFFFFF" stroke="#FFFFFF" stroke-miterlimit="10" d="M169.673,130.961c0-0.421-0.225-0.617-0.618-0.617h-1.152v-2.33
		h2.613c1.208,0,1.798,0.531,1.798,1.57v0.534c0,0.448-0.056,0.815-0.056,0.815h0.056c0.561-1.236,2.247-3.26,5.337-3.26
		c3.371,0,4.888,1.825,4.888,5.449v6.152c0,0.42,0.225,0.617,0.618,0.617h1.152v2.332h-2.698c-1.263,0-1.797-0.535-1.797-1.798
		v-6.687c0-1.995-0.393-3.566-2.668-3.566c-2.192,0-3.933,1.432-4.496,3.481c-0.196,0.562-0.252,1.208-0.252,1.911v6.658h-2.725
		V130.961L169.673,130.961z"/>
	<path fill="#FFFFFF" stroke="#FFFFFF" stroke-miterlimit="10" d="M189.282,138.236c0,0,1.686,2.106,4.298,2.106
		c1.32,0,2.472-0.589,2.472-1.825c0-2.557-7.752-2.274-7.752-6.854c0-2.726,2.388-3.99,5.281-3.99c1.714,0,4.663,0.591,4.663,2.754
		v1.349H195.8v-0.701c0-0.844-1.265-1.208-2.136-1.208c-1.602,0-2.641,0.562-2.641,1.685c0,2.698,7.754,2.107,7.754,6.855
		c0,2.527-2.248,4.156-5.227,4.156c-3.792,0-5.674-2.5-5.674-2.5L189.282,138.236z"/>
	<path fill="#FFFFFF" stroke="#FFFFFF" stroke-miterlimit="10" d="M204.622,130.202h-1.854v-2.188h1.912v-3.906h2.668v3.906h3.398
		v2.188h-3.398v6.519c0,2.836,1.965,3.202,3.004,3.202c0.396,0,0.647-0.057,0.647-0.057v2.416c0,0-0.365,0.057-0.955,0.057
		c-1.798,0-5.422-0.562-5.422-5.312V130.202z"/>
	<path fill="#FFFFFF" stroke="#FFFFFF" stroke-miterlimit="10" d="M216.786,130.961c0-0.421-0.226-0.618-0.618-0.618h-1.152v-2.331
		h2.668c1.267,0,1.799,0.533,1.799,1.799v9.467c0,0.422,0.227,0.617,0.617,0.617h1.153v2.332h-2.669
		c-1.266,0-1.798-0.533-1.798-1.799V130.961z M216.842,122.393h2.444v2.84h-2.444V122.393z"/>
	<path fill="#FFFFFF" stroke="#FFFFFF" stroke-miterlimit="10" d="M226.73,130.202h-1.854v-2.188h1.911v-3.906h2.668v3.906h3.399
		v2.188h-3.399v6.519c0,2.836,1.966,3.202,3.005,3.202c0.395,0,0.646-0.057,0.646-0.057v2.416c0,0-0.364,0.057-0.955,0.057
		c-1.797,0-5.422-0.562-5.422-5.312V130.202z"/>
	<path fill="#FFFFFF" stroke="#FFFFFF" stroke-miterlimit="10" d="M238.699,130.961c0-0.421-0.227-0.617-0.618-0.617h-1.153v-2.33
		h2.67c1.291,0,1.826,0.531,1.826,1.739v6.742c0,1.966,0.395,3.539,2.641,3.539c2.922,0,4.636-2.556,4.636-5.365v-6.655h2.725
		v11.264c0,0.421,0.226,0.617,0.618,0.617h1.152v2.332h-2.613c-1.208,0-1.798-0.562-1.798-1.574v-0.532
		c0-0.45,0.028-0.813,0.028-0.813h-0.057c-0.59,1.403-2.416,3.258-5.227,3.258c-3.201,0-4.83-1.687-4.83-5.449V130.961z"/>
	<path fill="#FFFFFF" stroke="#FFFFFF" stroke-miterlimit="10" d="M258.562,130.202h-1.854v-2.188h1.911v-3.906h2.668v3.906h3.398
		v2.188h-3.398v6.519c0,2.836,1.966,3.202,3.005,3.202c0.396,0,0.647-0.057,0.647-0.057v2.416c0,0-0.365,0.057-0.955,0.057
		c-1.799,0-5.422-0.562-5.422-5.312V130.202L258.562,130.202z"/>
	<path fill="#FFFFFF" stroke="#FFFFFF" stroke-miterlimit="10" d="M276.091,127.675c3.989,0,6.124,2.978,6.124,6.657
		c0,0.365-0.084,1.123-0.084,1.123h-10.367c0.17,3.034,2.36,4.748,4.889,4.748c2.443,0,4.158-1.656,4.158-1.656l1.181,1.938
		c0,0-2.107,2.08-5.478,2.08c-4.496,0-7.558-3.231-7.558-7.445C268.956,130.598,272.046,127.675,276.091,127.675 M279.404,133.461
		c-0.084-2.357-1.572-3.623-3.342-3.623c-2.078,0-3.765,1.266-4.187,3.623H279.404z"/>
	<line fill="none" stroke="#FFFFFF" stroke-miterlimit="10" x1="147.516" y1="92.353" x2="147.516" y2="141.24"/>
	<line fill="none" stroke="#FFFFFF" stroke-width="2" stroke-miterlimit="10" x1="147.516" y1="92.353" x2="147.516" y2="141.24"/>
	<path fill="none" stroke="#FFFFFF" stroke-miterlimit="10" d="M51.178,64.731c0.309,25.968-1.723,52.849,4.816,72.324
		c6.473,19.287,20.149,31.441,36.545,40.813c16.272-9.496,29.842-21.604,36.327-40.923c6.509-19.391,4.488-46.654,4.814-72.542
		H51.289C51.162,64.42,51.167,64.577,51.178,64.731"/>
	<rect x="51.289" y="54.288" fill="none" stroke="#FFFFFF" stroke-miterlimit="10" width="82.369" height="6.973"/>
	<path fill="none" stroke="#FFFFFF" stroke-miterlimit="10" d="M81.293,107.261c3.91,4.285,13.28,10.023,9.163,21.265
		c-3.206-2.211-7.143-3.692-12.793-3.457c-1.856-2.699-2.968-6.139-3.112-10.544c-1.182,3.373-0.344,8.281,1.037,10.717
		c-4.574,0.38-8.049,1.862-11.582,3.284c0.304-16.741,0.521-34.943,0.689-52.381c0.615-0.13,1.02,0.535,1.385,0.865
		c3.27,2.935,8.223,4.581,14.177,5.185c3.136,0.319,6.155,0.618,8.989,2.247c1.953,1.126,5.041,3.307,5.531,5.533
		c0.406,1.848-0.234,4.76-0.345,7.087c-0.312,6.564-0.993,13.773-1.383,20.401c-0.328,0.511-0.621-0.553-1.037-1.038
		c-2.795-3.263-6.69-6.507-10.371-8.991C81.498,107.402,81.467,107.261,81.293,107.261"/>
	<path fill="#FFFFFF" stroke="#FFFFFF" stroke-miterlimit="10" d="M95.297,89.456c-2.378-2.46-2.744-7.891,0.172-10.027
		C98.928,81.045,97.758,87.638,95.297,89.456"/>
	<path fill="#FFFFFF" stroke="#FFFFFF" stroke-miterlimit="10" d="M105.496,84.614c-0.215,6.703-3.116,10.716-9.336,11.412
		C95.339,88.976,99.759,85.678,105.496,84.614"/>
	<path fill="#FFFFFF" stroke="#FFFFFF" stroke-miterlimit="10" d="M62.968,129.907c1.657-0.502,3.901-1.123,6.398-1.728
		c2.218-0.537,5.218-1.615,6.914-1.209c1.145,0.271,1.731,1.788,2.248,2.418c-6.669,0.418-12.577,1.604-17.981,3.285
		c-0.041-15.2,0.529-31.279,0.865-46.677c0.382-0.292,1.704,1.004,1.902,1.728c0.655,2.389,0.111,7.949,0,10.72
		C62.912,108.51,63.091,120.155,62.968,129.907"/>
	<path fill="#FFFFFF" stroke="#FFFFFF" stroke-miterlimit="10" d="M109.473,90.838c-0.881,1.812-2.406,3.561-5.359,2.765
		C104.409,91.283,106.834,90.251,109.473,90.838"/>
	<path fill="#FFFFFF" stroke="#FFFFFF" stroke-miterlimit="10" d="M118.289,94.641c-0.416,6.556-3.16,10.786-9.508,11.411
		C108.127,99.105,112.373,95.593,118.289,94.641"/>
	<path fill="#FFFFFF" stroke="#FFFFFF" stroke-miterlimit="10" d="M109.299,95.679c-1.752,3.683-8.615,5.955-12.1,1.727
		C100.375,94.723,104.873,95.981,109.299,95.679"/>
	<path fill="#FFFFFF" stroke="#FFFFFF" stroke-miterlimit="10" d="M96.852,98.964c3.291,1.27,5.607,6.514,3.459,10.545
		C97.486,107.772,95.863,103.941,96.852,98.964"/>
	<path fill="#FFFFFF" stroke="#FFFFFF" stroke-miterlimit="10" d="M106.706,99.482c2.916,5.078-0.78,10.135-5.014,11.235
		c1.193-1.526,0.802-3.168,1.036-5.357C103.017,102.712,105.506,101.557,106.706,99.482"/>
	<path fill="#FFFFFF" stroke="#FFFFFF" stroke-miterlimit="10" d="M122.611,102.94c-1.127,1.636-4.384,2.38-6.051,0.69
		C117.305,101.755,121.095,101.675,122.611,102.94"/>
	<path fill="#FFFFFF" stroke="#FFFFFF" stroke-miterlimit="10" d="M121.746,105.706c0.195,0.547-1.211,1.76-2.074,2.421
		c-2.74,2.099-7.143,2.267-9.854-0.694c2.185-0.794,4.121-2.372,6.916-2.073C118.401,105.539,120.026,106.58,121.746,105.706"/>
	<path fill="#FFFFFF" stroke="#FFFFFF" stroke-miterlimit="10" d="M97.717,108.645c0.5,0.389,1.422,1.351,1.557,2.419
		c0.302,2.431-1.848,4.601-2.594,1.901C96.216,111.291,97.173,109.587,97.717,108.645"/>
	<path fill="#FFFFFF" stroke="#FFFFFF" stroke-miterlimit="10" d="M115.004,111.93c-1.904,4.796-7.826,6.914-14.176,4.32
		C102.461,111.799,109.922,108.694,115.004,111.93"/>
	<path fill="#FFFFFF" stroke="#FFFFFF" stroke-miterlimit="10" d="M123.13,111.583c-0.772,4.472-3.552,6.938-7.433,8.298
		C116.012,114.954,118.143,111.84,123.13,111.583"/>
	<path fill="#FFFFFF" stroke="#FFFFFF" stroke-miterlimit="10" d="M113.104,117.807c-0.193,4.59-2.791,6.774-7.26,7.09
		C106.663,120.934,108.175,117.662,113.104,117.807"/>
	<path fill="#FFFFFF" stroke="#FFFFFF" stroke-miterlimit="10" d="M101.002,140.256c-3.277-4.484-0.818-10.318,3.111-11.931
		c0.541,2.362,0.602,5.206-0.347,6.915C102.869,136.859,100.704,137.988,101.002,140.256"/>
	<path fill="#FFFFFF" stroke="#FFFFFF" stroke-miterlimit="10" d="M122.092,120.748c-1.324,1.564-4.229,2.304-6.05,0.688
		C116.889,119.479,120.52,119.311,122.092,120.748"/>
	<path fill="#FFFFFF" stroke="#FFFFFF" stroke-miterlimit="10" d="M79.392,126.973c4.225-0.423,8.091,1.014,10.72,2.764
		c0.004,0.406-0.299,0.508-0.175,1.037C86.458,130.156,81.782,129.252,79.392,126.973"/>
	<path fill="#FFFFFF" stroke="#FFFFFF" stroke-miterlimit="10" d="M94.021,151.311c0.223,0.113,0.448,0.219,0.69,0.301
		c0.496,0.166,1.003,0.307,1.517,0.419c0.761-0.009,1.526,0.024,2.3,0.04c0.672,0.011,1.336,0.027,1.952-0.082
		c0.359-0.229,0.708-0.504,1.046-0.82c-0.29-0.013-0.584-0.018-0.869-0.031c0.348-6.812,0.859-11.75,3.975-15.558
		c2.138-2.614,5.2-3.956,7.26-6.397c2.64-3.129,4.436-8.171,3.112-13.833c0.014,10.963-7.727,15.092-14.867,18.326
		c-1.08-4.524-3.297-10.019-1.383-14.692c1.744-4.26,6.305-7.27,8.997-10.359c-4.174,2.286-8.426,6.663-11.417,10.012
		c-0.496-8.034-1.091-15.966-1.382-24.202c-0.52,18.556,0.171,38.321-0.346,56.877H94.021L94.021,151.311z"/>
</g>
</svg>
